<?xml version="1.0" encoding="UTF-8" standalone="no"?>
<!DOCTYPE svg PUBLIC "-//W3C//DTD SVG 1.1//EN"
 "http://www.w3.org/Graphics/SVG/1.1/DTD/svg11.dtd">
<!-- Generated by graphviz version 2.43.0 (0)
 -->
<!-- Title: PyClaudeCliArchitecture Pages: 1 -->
<svg width="2886pt" height="876pt"
 viewBox="0.00 0.00 2886.00 876.08" xmlns="http://www.w3.org/2000/svg" xmlns:xlink="http://www.w3.org/1999/xlink">
<g id="graph0" class="graph" transform="scale(1 1) rotate(0) translate(4 872.08)">
<title>PyClaudeCliArchitecture</title>
<polygon fill="white" stroke="transparent" points="-4,4 -4,-872.08 2882,-872.08 2882,4 -4,4"/>
<text text-anchor="middle" x="1439" y="-848.08" font-family="Arial Bold" font-size="20.00">PyClaudeCli Architecture</text>
<text text-anchor="middle" x="1439" y="-826.08" font-family="Arial Bold" font-size="20.00">AI&#45;Powered Command Line Interface</text>
<g id="clust1" class="cluster">
<title>cluster_entry</title>
<polygon fill="lightgreen" stroke="darkgreen" points="1257,-698 1257,-808.08 1626,-808.08 1626,-698 1257,-698"/>
<text text-anchor="middle" x="1441.5" y="-792.88" font-family="Arial Bold" font-size="14.00">Entry Points</text>
</g>
<g id="clust2" class="cluster">
<title>cluster_core</title>
<polygon fill="lightblue" stroke="darkblue" points="1257,-376.5 1257,-669 1537,-669 1537,-376.5 1257,-376.5"/>
<text text-anchor="middle" x="1397" y="-653.8" font-family="Arial Bold" font-size="14.00">Core Components</text>
</g>
<g id="clust3" class="cluster">
<title>cluster_modes</title>
<polygon fill="lightyellow" stroke="darkorange" points="1545,-370 1545,-505 1895,-505 1895,-370 1545,-370"/>
<text text-anchor="middle" x="1720" y="-489.8" font-family="Arial Bold" font-size="14.00">Interaction Modes</text>
</g>
<g id="clust4" class="cluster">
<title>cluster_api</title>
<polygon fill="lightpink" stroke="darkred" points="1846,-181.5 1846,-316.5 2131,-316.5 2131,-181.5 1846,-181.5"/>
<text text-anchor="middle" x="1988.5" y="-301.3" font-family="Arial Bold" font-size="14.00">API Layer</text>
</g>
<g id="clust5" class="cluster">
<title>cluster_plugins</title>
<polygon fill="lavender" stroke="purple" points="8,-194.5 8,-492 138,-492 138,-194.5 8,-194.5"/>
<text text-anchor="middle" x="73" y="-476.8" font-family="Arial Bold" font-size="14.00">Plugin System</text>
</g>
<g id="clust6" class="cluster">
<title>cluster_utils</title>
<polygon fill="lightyellow" stroke="darkorange" points="146,-180 146,-341 1838,-341 1838,-180 146,-180"/>
<text text-anchor="middle" x="992" y="-325.8" font-family="Arial Bold" font-size="14.00">Utilities</text>
</g>
<g id="clust7" class="cluster">
<title>cluster_io</title>
<polygon fill="lightyellow" stroke="darkorange" points="890,-188 890,-310 1198,-310 1198,-188 890,-188"/>
<text text-anchor="middle" x="1044" y="-294.8" font-family="Arial Bold" font-size="14.00">I/O &amp; Storage</text>
</g>
<g id="clust8" class="cluster">
<title>cluster_ui</title>
<polygon fill="lightyellow" stroke="darkorange" points="1206,-200 1206,-298 1830,-298 1830,-200 1206,-200"/>
<text text-anchor="middle" x="1518" y="-282.8" font-family="Arial Bold" font-size="14.00">UI Components</text>
</g>
<g id="clust9" class="cluster">
<title>cluster_core_utils</title>
<polygon fill="lightyellow" stroke="darkorange" points="154,-200 154,-298 882,-298 882,-200 154,-200"/>
<text text-anchor="middle" x="518" y="-282.8" font-family="Arial Bold" font-size="14.00">Core Utilities</text>
</g>
<g id="clust10" class="cluster">
<title>cluster_external</title>
<polygon fill="lightgray" stroke="darkgray" points="1726,-8 1726,-152.5 1988,-152.5 1988,-8 1726,-8"/>
<text text-anchor="middle" x="1857" y="-137.3" font-family="Arial Bold" font-size="14.00">External Services</text>
</g>
<g id="clust11" class="cluster">
<title>cluster_legend</title>
<polygon fill="white" stroke="black" points="2139,-200 2139,-798.04 2870,-798.04 2870,-200 2139,-200"/>
<text text-anchor="middle" x="2504.5" y="-784.44" font-family="Arial Bold" font-size="12.00">Legend</text>
</g>
<!-- main_py -->
<g id="node1" class="node">
<title>main_py</title>
<ellipse fill="palegreen" stroke="black" cx="1534" cy="-730.04" rx="84.29" ry="24.08"/>
<text text-anchor="middle" x="1534" y="-733.44" font-family="Arial" font-size="12.00">main.py</text>
<text text-anchor="middle" x="1534" y="-720.44" font-family="Arial" font-size="12.00">Primary Entry Point</text>
</g>
<!-- cli_handler -->
<g id="node3" class="node">
<title>cli_handler</title>
<polygon fill="lightblue" stroke="black" points="1529,-615 1385,-615 1385,-542 1529,-542 1529,-615"/>
<text text-anchor="middle" x="1457" y="-601.4" font-family="Arial" font-size="12.00">ai/cli.py</text>
<text text-anchor="middle" x="1457" y="-588.4" font-family="Arial" font-size="12.00">CLI Handler</text>
<text text-anchor="middle" x="1457" y="-575.4" font-family="Arial" font-size="12.00">• Argument parsing</text>
<text text-anchor="middle" x="1457" y="-562.4" font-family="Arial" font-size="12.00">• Command routing</text>
<text text-anchor="middle" x="1457" y="-549.4" font-family="Arial" font-size="12.00">• Lifecycle management</text>
</g>
<!-- main_py&#45;&gt;cli_handler -->
<g id="edge1" class="edge">
<title>main_py&#45;&gt;cli_handler</title>
<path fill="none" stroke="black" d="M1522.14,-706C1510.97,-684.31 1493.93,-651.22 1480.08,-624.33"/>
<polygon fill="black" stroke="black" points="1483.02,-622.39 1475.33,-615.1 1476.8,-625.59 1483.02,-622.39"/>
<text text-anchor="middle" x="1527.5" y="-680" font-family="Arial" font-size="10.00">imports</text>
</g>
<!-- main_module -->
<g id="node2" class="node">
<title>main_module</title>
<ellipse fill="palegreen" stroke="black" cx="1348" cy="-730.04" rx="83.38" ry="24.08"/>
<text text-anchor="middle" x="1348" y="-733.44" font-family="Arial" font-size="12.00">ai/__main__.py</text>
<text text-anchor="middle" x="1348" y="-720.44" font-family="Arial" font-size="12.00">Module Entry Point</text>
</g>
<!-- main_module&#45;&gt;cli_handler -->
<g id="edge2" class="edge">
<title>main_module&#45;&gt;cli_handler</title>
<path fill="none" stroke="black" d="M1364.55,-706.33C1380.53,-684.41 1405.14,-650.65 1424.96,-623.46"/>
<polygon fill="black" stroke="black" points="1427.87,-625.4 1430.94,-615.26 1422.22,-621.28 1427.87,-625.4"/>
<text text-anchor="middle" x="1399.5" y="-680" font-family="Arial" font-size="10.00">imports</text>
</g>
<!-- models -->
<g id="node5" class="node">
<title>models</title>
<polygon fill="lightblue" stroke="black" points="1410,-444.5 1300,-444.5 1300,-384.5 1410,-384.5 1410,-444.5"/>
<text text-anchor="middle" x="1355" y="-430.9" font-family="Arial" font-size="12.00">ai/models.py</text>
<text text-anchor="middle" x="1355" y="-417.9" font-family="Arial" font-size="12.00">Data Models</text>
<text text-anchor="middle" x="1355" y="-404.9" font-family="Arial" font-size="12.00">• Interaction class</text>
<text text-anchor="middle" x="1355" y="-391.9" font-family="Arial" font-size="12.00">• Serialization</text>
</g>
<!-- cli_handler&#45;&gt;models -->
<g id="edge10" class="edge">
<title>cli_handler&#45;&gt;models</title>
<path fill="none" stroke="black" stroke-dasharray="5,2" d="M1434.62,-541.95C1418.12,-515.76 1395.73,-480.19 1378.89,-453.45"/>
<polygon fill="black" stroke="black" points="1381.7,-451.34 1373.41,-444.75 1375.78,-455.07 1381.7,-451.34"/>
<text text-anchor="middle" x="1437.5" y="-516" font-family="Arial" font-size="10.00">creates</text>
</g>
<!-- interactive -->
<g id="node6" class="node">
<title>interactive</title>
<polygon fill="gold" stroke="black" points="1692.5,-451 1553.5,-451 1553.5,-378 1692.5,-378 1692.5,-451"/>
<text text-anchor="middle" x="1623" y="-437.4" font-family="Arial" font-size="12.00">ai/modes/interactive.py</text>
<text text-anchor="middle" x="1623" y="-424.4" font-family="Arial" font-size="12.00">Interactive Mode</text>
<text text-anchor="middle" x="1623" y="-411.4" font-family="Arial" font-size="12.00">• Prompt toolkit UI</text>
<text text-anchor="middle" x="1623" y="-398.4" font-family="Arial" font-size="12.00">• Vim keybindings</text>
<text text-anchor="middle" x="1623" y="-385.4" font-family="Arial" font-size="12.00">• File uploads</text>
</g>
<!-- cli_handler&#45;&gt;interactive -->
<g id="edge3" class="edge">
<title>cli_handler&#45;&gt;interactive</title>
<path fill="none" stroke="black" d="M1500.16,-541.93C1513.54,-530.46 1528.15,-517.48 1541,-505 1555.94,-490.5 1571.55,-473.86 1585.11,-458.9"/>
<polygon fill="black" stroke="black" points="1587.9,-461.02 1591.99,-451.25 1582.7,-456.34 1587.9,-461.02"/>
<text text-anchor="middle" x="1568.5" y="-516" font-family="Arial" font-size="10.00">interactive mode</text>
</g>
<!-- async_interactive -->
<g id="node7" class="node">
<title>async_interactive</title>
<polygon fill="gold" stroke="black" points="1887.5,-444.5 1710.5,-444.5 1710.5,-384.5 1887.5,-384.5 1887.5,-444.5"/>
<text text-anchor="middle" x="1799" y="-430.9" font-family="Arial" font-size="12.00">ai/modes/async_interactive.py</text>
<text text-anchor="middle" x="1799" y="-417.9" font-family="Arial" font-size="12.00">Async Interactive</text>
<text text-anchor="middle" x="1799" y="-404.9" font-family="Arial" font-size="12.00">• Non&#45;blocking UI</text>
<text text-anchor="middle" x="1799" y="-391.9" font-family="Arial" font-size="12.00">• Concurrent ops</text>
</g>
<!-- cli_handler&#45;&gt;async_interactive -->
<g id="edge4" class="edge">
<title>cli_handler&#45;&gt;async_interactive</title>
<path fill="none" stroke="black" d="M1529.06,-565.22C1579.79,-554.47 1648,-535.67 1702,-505 1726.23,-491.24 1749.34,-470.35 1766.91,-452.22"/>
<polygon fill="black" stroke="black" points="1769.75,-454.31 1774.09,-444.64 1764.67,-449.49 1769.75,-454.31"/>
<text text-anchor="middle" x="1710" y="-516" font-family="Arial" font-size="10.00">async mode</text>
</g>
<!-- api_client -->
<g id="node8" class="node">
<title>api_client</title>
<polygon fill="pink" stroke="black" points="1973.5,-262.5 1854.5,-262.5 1854.5,-189.5 1973.5,-189.5 1973.5,-262.5"/>
<text text-anchor="middle" x="1914" y="-248.9" font-family="Arial" font-size="12.00">ai/api/client.py</text>
<text text-anchor="middle" x="1914" y="-235.9" font-family="Arial" font-size="12.00">Claude API Client</text>
<text text-anchor="middle" x="1914" y="-222.9" font-family="Arial" font-size="12.00">• Authentication</text>
<text text-anchor="middle" x="1914" y="-209.9" font-family="Arial" font-size="12.00">• Request handling</text>
<text text-anchor="middle" x="1914" y="-196.9" font-family="Arial" font-size="12.00">• Retry logic</text>
</g>
<!-- cli_handler&#45;&gt;api_client -->
<g id="edge5" class="edge">
<title>cli_handler&#45;&gt;api_client</title>
<path fill="none" stroke="black" d="M1529.05,-576.22C1641.53,-572.56 1850.98,-558.55 1899,-505 1928.66,-471.93 1923.46,-343.02 1918.17,-272.96"/>
<polygon fill="black" stroke="black" points="1921.63,-272.35 1917.36,-262.65 1914.65,-272.9 1921.63,-272.35"/>
<text text-anchor="middle" x="1948" y="-412" font-family="Arial" font-size="10.00">direct query</text>
</g>
<!-- plugin_manager -->
<g id="node10" class="node">
<title>plugin_manager</title>
<polygon fill="plum" stroke="black" points="127.5,-438 24.5,-438 24.5,-391 127.5,-391 127.5,-438"/>
<text text-anchor="middle" x="76" y="-424.4" font-family="Arial" font-size="12.00">Plugin Manager</text>
<text text-anchor="middle" x="76" y="-411.4" font-family="Arial" font-size="12.00">• Load plugins</text>
<text text-anchor="middle" x="76" y="-398.4" font-family="Arial" font-size="12.00">• Execute hooks</text>
</g>
<!-- cli_handler&#45;&gt;plugin_manager -->
<g id="edge22" class="edge">
<title>cli_handler&#45;&gt;plugin_manager</title>
<path fill="none" stroke="black" stroke-dasharray="1,5" d="M1384.6,-544.16C1381.72,-543.35 1378.85,-542.62 1376,-542 1255.05,-515.64 381.24,-557.27 262,-524 205.33,-508.19 148.04,-470.81 112.31,-444.36"/>
<polygon fill="black" stroke="black" points="114.24,-441.43 104.14,-438.22 110.04,-447.03 114.24,-441.43"/>
<text text-anchor="middle" x="291" y="-516" font-family="Arial" font-size="10.00">loads plugins</text>
</g>
<!-- config -->
<g id="node13" class="node">
<title>config</title>
<polygon fill="khaki" stroke="black" points="1038,-249.5 898,-249.5 898,-202.5 1038,-202.5 1038,-249.5"/>
<text text-anchor="middle" x="968" y="-235.9" font-family="Arial" font-size="12.00">ai/utils/config.py</text>
<text text-anchor="middle" x="968" y="-222.9" font-family="Arial" font-size="12.00">• Settings management</text>
<text text-anchor="middle" x="968" y="-209.9" font-family="Arial" font-size="12.00">• Environment vars</text>
</g>
<!-- cli_handler&#45;&gt;config -->
<g id="edge14" class="edge">
<title>cli_handler&#45;&gt;config</title>
<path fill="none" stroke="black" d="M1384.7,-545.45C1381.77,-544.26 1378.86,-543.11 1376,-542 1328.31,-523.49 1312.29,-528.8 1267,-505 1159.05,-448.26 1131.73,-428.71 1047,-341 1022.67,-315.81 1000.49,-282.46 985.87,-258.34"/>
<polygon fill="black" stroke="black" points="988.77,-256.38 980.64,-249.58 982.76,-259.96 988.77,-256.38"/>
<text text-anchor="middle" x="1279" y="-412" font-family="Arial" font-size="10.00">loads</text>
</g>
<!-- validation -->
<g id="node18" class="node">
<title>validation</title>
<polygon fill="khaki" stroke="black" points="284,-244 162,-244 162,-208 284,-208 284,-244"/>
<text text-anchor="middle" x="223" y="-229.4" font-family="Arial" font-size="12.00">ai/utils/validation.py</text>
<text text-anchor="middle" x="223" y="-216.4" font-family="Arial" font-size="12.00">Input validation</text>
</g>
<!-- cli_handler&#45;&gt;validation -->
<g id="edge13" class="edge">
<title>cli_handler&#45;&gt;validation</title>
<path fill="none" stroke="black" d="M1384.59,-544.21C1381.71,-543.39 1378.85,-542.64 1376,-542 1273.41,-518.77 524.17,-551.87 430,-505 322.29,-451.4 256.56,-311.96 232.94,-253.45"/>
<polygon fill="black" stroke="black" points="236.19,-252.15 229.26,-244.14 229.68,-254.73 236.19,-252.15"/>
<text text-anchor="middle" x="450" y="-412" font-family="Arial" font-size="10.00">validates</text>
</g>
<!-- exceptions -->
<g id="node19" class="node">
<title>exceptions</title>
<polygon fill="khaki" stroke="black" points="430,-244 302,-244 302,-208 430,-208 430,-244"/>
<text text-anchor="middle" x="366" y="-229.4" font-family="Arial" font-size="12.00">ai/utils/exceptions.py</text>
<text text-anchor="middle" x="366" y="-216.4" font-family="Arial" font-size="12.00">Error handling</text>
</g>
<!-- cli_handler&#45;&gt;exceptions -->
<g id="edge16" class="edge">
<title>cli_handler&#45;&gt;exceptions</title>
<path fill="none" stroke="black" d="M1384.56,-544.32C1381.7,-543.46 1378.84,-542.68 1376,-542 1247,-510.88 908.38,-538.6 780,-505 617.31,-462.42 564.9,-452.49 439,-341 411.2,-316.38 389.9,-278.72 377.68,-253.49"/>
<polygon fill="black" stroke="black" points="380.71,-251.73 373.29,-244.17 374.38,-254.71 380.71,-251.73"/>
<text text-anchor="middle" x="797" y="-412" font-family="Arial" font-size="10.00">handles</text>
</g>
<!-- logging -->
<g id="node20" class="node">
<title>logging</title>
<polygon fill="khaki" stroke="black" points="558,-244 448,-244 448,-208 558,-208 558,-244"/>
<text text-anchor="middle" x="503" y="-229.4" font-family="Arial" font-size="12.00">ai/utils/logging.py</text>
<text text-anchor="middle" x="503" y="-216.4" font-family="Arial" font-size="12.00">Logging system</text>
</g>
<!-- cli_handler&#45;&gt;logging -->
<g id="edge15" class="edge">
<title>cli_handler&#45;&gt;logging</title>
<path fill="none" stroke="black" d="M1384.97,-544.65C1381.96,-543.69 1378.96,-542.8 1376,-542 1236.06,-504.27 1190.46,-547.84 1052,-505 910.31,-461.16 900.17,-387.74 757,-349 736.6,-343.48 585.01,-352.06 567,-341 535.61,-321.73 518.3,-281.08 509.83,-253.91"/>
<polygon fill="black" stroke="black" points="513.17,-252.84 507.01,-244.22 506.45,-254.8 513.17,-252.84"/>
<text text-anchor="middle" x="1061.5" y="-412" font-family="Arial" font-size="10.00">logs</text>
</g>
<!-- constants -->
<g id="node4" class="node">
<title>constants</title>
<polygon fill="lightblue" stroke="black" points="1366.5,-608.5 1265.5,-608.5 1265.5,-548.5 1366.5,-548.5 1366.5,-608.5"/>
<text text-anchor="middle" x="1316" y="-594.9" font-family="Arial" font-size="12.00">ai/constants.py</text>
<text text-anchor="middle" x="1316" y="-581.9" font-family="Arial" font-size="12.00">Configuration</text>
<text text-anchor="middle" x="1316" y="-568.9" font-family="Arial" font-size="12.00">• API settings</text>
<text text-anchor="middle" x="1316" y="-555.9" font-family="Arial" font-size="12.00">• Default values</text>
</g>
<!-- io_utils -->
<g id="node12" class="node">
<title>io_utils</title>
<polygon fill="khaki" stroke="black" points="1190,-256 1056,-256 1056,-196 1190,-196 1190,-256"/>
<text text-anchor="middle" x="1123" y="-242.4" font-family="Arial" font-size="12.00">ai/utils/io.py</text>
<text text-anchor="middle" x="1123" y="-229.4" font-family="Arial" font-size="12.00">• File operations</text>
<text text-anchor="middle" x="1123" y="-216.4" font-family="Arial" font-size="12.00">• Token management</text>
<text text-anchor="middle" x="1123" y="-203.4" font-family="Arial" font-size="12.00">• Conversation persist</text>
</g>
<!-- models&#45;&gt;io_utils -->
<g id="edge11" class="edge">
<title>models&#45;&gt;io_utils</title>
<path fill="none" stroke="black" stroke-dasharray="5,2" d="M1299.65,-395.37C1268.64,-383.33 1230.58,-365.25 1202,-341 1177.25,-320 1156.67,-289.51 1142.72,-265.35"/>
<polygon fill="black" stroke="black" points="1145.66,-263.43 1137.7,-256.43 1139.55,-266.86 1145.66,-263.43"/>
<text text-anchor="middle" x="1245.5" y="-352" font-family="Arial" font-size="10.00">serialize</text>
</g>
<!-- interactive&#45;&gt;api_client -->
<g id="edge6" class="edge">
<title>interactive&#45;&gt;api_client</title>
<path fill="none" stroke="black" d="M1683.42,-377.98C1689.58,-375.04 1695.85,-372.32 1702,-370 1758.22,-348.85 1784.01,-374.3 1834,-341 1859.61,-323.94 1879.52,-295.68 1893.08,-271.56"/>
<polygon fill="black" stroke="black" points="1896.27,-273.01 1897.96,-262.55 1890.12,-269.68 1896.27,-273.01"/>
<text text-anchor="middle" x="1839" y="-352" font-family="Arial" font-size="10.00">API calls</text>
</g>
<!-- colors -->
<g id="node14" class="node">
<title>colors</title>
<polygon fill="khaki" stroke="black" points="1684,-244 1582,-244 1582,-208 1684,-208 1684,-244"/>
<text text-anchor="middle" x="1633" y="-229.4" font-family="Arial" font-size="12.00">ai/utils/colors.py</text>
<text text-anchor="middle" x="1633" y="-216.4" font-family="Arial" font-size="12.00">ANSI colors</text>
</g>
<!-- interactive&#45;&gt;colors -->
<g id="edge17" class="edge">
<title>interactive&#45;&gt;colors</title>
<path fill="none" stroke="black" d="M1624.9,-377.98C1626.83,-342.09 1629.76,-287.39 1631.52,-254.62"/>
<polygon fill="black" stroke="black" points="1635.03,-254.58 1632.07,-244.4 1628.04,-254.2 1635.03,-254.58"/>
<text text-anchor="middle" x="1637" y="-352" font-family="Arial" font-size="10.00">uses</text>
</g>
<!-- spinner -->
<g id="node15" class="node">
<title>spinner</title>
<polygon fill="khaki" stroke="black" points="1822,-244 1702,-244 1702,-208 1822,-208 1822,-244"/>
<text text-anchor="middle" x="1762" y="-229.4" font-family="Arial" font-size="12.00">ai/utils/spinner.py</text>
<text text-anchor="middle" x="1762" y="-216.4" font-family="Arial" font-size="12.00">Progress animation</text>
</g>
<!-- interactive&#45;&gt;spinner -->
<g id="edge18" class="edge">
<title>interactive&#45;&gt;spinner</title>
<path fill="none" stroke="black" d="M1660.65,-377.69C1671.64,-366.42 1683.29,-353.62 1693,-341 1714.8,-312.68 1735.42,-277.02 1748.34,-253.2"/>
<polygon fill="black" stroke="black" points="1751.43,-254.85 1753.07,-244.38 1745.26,-251.54 1751.43,-254.85"/>
<text text-anchor="middle" x="1697" y="-352" font-family="Arial" font-size="10.00">uses</text>
</g>
<!-- output_formatter -->
<g id="node16" class="node">
<title>output_formatter</title>
<polygon fill="khaki" stroke="black" points="1563.5,-244 1408.5,-244 1408.5,-208 1563.5,-208 1563.5,-244"/>
<text text-anchor="middle" x="1486" y="-229.4" font-family="Arial" font-size="12.00">ai/utils/output_formatter.py</text>
<text text-anchor="middle" x="1486" y="-216.4" font-family="Arial" font-size="12.00">Output formatting</text>
</g>
<!-- interactive&#45;&gt;output_formatter -->
<g id="edge19" class="edge">
<title>interactive&#45;&gt;output_formatter</title>
<path fill="none" stroke="black" d="M1556.44,-377.88C1551.23,-375.19 1546.04,-372.53 1541,-370 1531.77,-365.35 1526.57,-367.98 1520,-360 1495.16,-329.81 1488.2,-283.7 1486.4,-254.47"/>
<polygon fill="black" stroke="black" points="1489.88,-253.99 1485.93,-244.16 1482.89,-254.31 1489.88,-253.99"/>
<text text-anchor="middle" x="1531" y="-352" font-family="Arial" font-size="10.00">uses</text>
</g>
<!-- async_client -->
<g id="node9" class="node">
<title>async_client</title>
<polygon fill="pink" stroke="black" points="2122.5,-256 1991.5,-256 1991.5,-196 2122.5,-196 2122.5,-256"/>
<text text-anchor="middle" x="2057" y="-242.4" font-family="Arial" font-size="12.00">ai/api/async_client.py</text>
<text text-anchor="middle" x="2057" y="-229.4" font-family="Arial" font-size="12.00">Async API Client</text>
<text text-anchor="middle" x="2057" y="-216.4" font-family="Arial" font-size="12.00">• Async operations</text>
<text text-anchor="middle" x="2057" y="-203.4" font-family="Arial" font-size="12.00">• Streaming support</text>
</g>
<!-- async_interactive&#45;&gt;async_client -->
<g id="edge7" class="edge">
<title>async_interactive&#45;&gt;async_client</title>
<path fill="none" stroke="black" d="M1865.41,-384.46C1877.22,-379.51 1889.43,-374.51 1901,-370 1937.02,-355.97 1952.64,-364.93 1983,-341 2008.31,-321.05 2027.67,-289.95 2040.23,-265.27"/>
<polygon fill="black" stroke="black" points="2043.44,-266.68 2044.71,-256.16 2037.16,-263.59 2043.44,-266.68"/>
<text text-anchor="middle" x="1996" y="-352" font-family="Arial" font-size="10.00">async calls</text>
</g>
<!-- connection_pool -->
<g id="node22" class="node">
<title>connection_pool</title>
<polygon fill="khaki" stroke="black" points="734,-244 576,-244 576,-208 734,-208 734,-244"/>
<text text-anchor="middle" x="655" y="-229.4" font-family="Arial" font-size="12.00">ai/utils/connection_pool.py</text>
<text text-anchor="middle" x="655" y="-216.4" font-family="Arial" font-size="12.00">Connection pooling</text>
</g>
<!-- api_client&#45;&gt;connection_pool -->
<g id="edge20" class="edge">
<title>api_client&#45;&gt;connection_pool</title>
<path fill="none" stroke="black" d="M1896.33,-262.63C1882.84,-286.04 1861.83,-314.46 1834,-328 1779.5,-354.52 798.11,-353.24 743,-328 709.63,-312.72 684.1,-277.83 669.34,-253.13"/>
<polygon fill="black" stroke="black" points="672.24,-251.14 664.22,-244.22 666.17,-254.63 672.24,-251.14"/>
<text text-anchor="middle" x="1333" y="-352" font-family="Arial" font-size="10.00">uses</text>
</g>
<!-- claude_api -->
<g id="node23" class="node">
<title>claude_api</title>
<path fill="gray" stroke="black" d="M1980,-83.53C1980,-86.76 1950.42,-89.38 1914,-89.38 1877.58,-89.38 1848,-86.76 1848,-83.53 1848,-83.53 1848,-30.97 1848,-30.97 1848,-27.74 1877.58,-25.12 1914,-25.12 1950.42,-25.12 1980,-27.74 1980,-30.97 1980,-30.97 1980,-83.53 1980,-83.53"/>
<path fill="none" stroke="black" d="M1980,-83.53C1980,-80.31 1950.42,-77.69 1914,-77.69 1877.58,-77.69 1848,-80.31 1848,-83.53"/>
<text text-anchor="middle" x="1914" y="-67.15" font-family="Arial" font-size="12.00" fill="white">Anthropic Claude API</text>
<text text-anchor="middle" x="1914" y="-54.15" font-family="Arial" font-size="12.00" fill="white">• Text generation</text>
<text text-anchor="middle" x="1914" y="-41.15" font-family="Arial" font-size="12.00" fill="white">• Image analysis</text>
</g>
<!-- api_client&#45;&gt;claude_api -->
<g id="edge8" class="edge">
<title>api_client&#45;&gt;claude_api</title>
<path fill="none" stroke="black" d="M1914,-189.23C1914,-162.92 1914,-127.11 1914,-99.58"/>
<polygon fill="black" stroke="black" points="1917.5,-99.47 1914,-89.47 1910.5,-99.47 1917.5,-99.47"/>
<text text-anchor="middle" x="1947.5" y="-163.5" font-family="Arial" font-size="10.00">HTTP requests</text>
</g>
<!-- streaming -->
<g id="node21" class="node">
<title>streaming</title>
<polygon fill="khaki" stroke="black" points="874,-244 752,-244 752,-208 874,-208 874,-244"/>
<text text-anchor="middle" x="813" y="-229.4" font-family="Arial" font-size="12.00">ai/utils/streaming.py</text>
<text text-anchor="middle" x="813" y="-216.4" font-family="Arial" font-size="12.00">Stream processing</text>
</g>
<!-- async_client&#45;&gt;streaming -->
<g id="edge21" class="edge">
<title>async_client&#45;&gt;streaming</title>
<path fill="none" stroke="black" d="M2044.48,-256.31C2032.62,-280.63 2012.23,-313.09 1983,-328 1928.71,-355.69 940.2,-355.86 886,-328 855.74,-312.44 835.22,-277.88 823.83,-253.3"/>
<polygon fill="black" stroke="black" points="827.01,-251.85 819.77,-244.11 820.61,-254.67 827.01,-251.85"/>
<text text-anchor="middle" x="1557" y="-352" font-family="Arial" font-size="10.00">uses</text>
</g>
<!-- async_client&#45;&gt;claude_api -->
<g id="edge9" class="edge">
<title>async_client&#45;&gt;claude_api</title>
<path fill="none" stroke="black" d="M2032.09,-195.95C2008.66,-168.63 1973.4,-127.52 1947.51,-97.33"/>
<polygon fill="black" stroke="black" points="1949.97,-94.82 1940.81,-89.51 1944.66,-99.38 1949.97,-94.82"/>
<text text-anchor="middle" x="2038" y="-163.5" font-family="Arial" font-size="10.00">async HTTP</text>
</g>
<!-- plugin_base -->
<g id="node11" class="node">
<title>plugin_base</title>
<polygon fill="plum" stroke="black" points="129.5,-249.5 16.5,-249.5 16.5,-202.5 129.5,-202.5 129.5,-249.5"/>
<text text-anchor="middle" x="73" y="-235.9" font-family="Arial" font-size="12.00">Base Classes</text>
<text text-anchor="middle" x="73" y="-222.9" font-family="Arial" font-size="12.00">• Plugin interfaces</text>
<text text-anchor="middle" x="73" y="-209.9" font-family="Arial" font-size="12.00">• Decorators</text>
</g>
<!-- plugin_manager&#45;&gt;plugin_base -->
<g id="edge23" class="edge">
<title>plugin_manager&#45;&gt;plugin_base</title>
<path fill="none" stroke="black" stroke-dasharray="1,5" d="M75.63,-390.63C75.11,-357.96 74.14,-297.75 73.53,-260.18"/>
<polygon fill="black" stroke="black" points="77.03,-259.71 73.37,-249.76 70.03,-259.82 77.03,-259.71"/>
<text text-anchor="middle" x="101.5" y="-352" font-family="Arial" font-size="10.00">implements</text>
</g>
<!-- filesystem -->
<g id="node24" class="node">
<title>filesystem</title>
<path fill="gray" stroke="black" d="M1830,-90.8C1830,-94.91 1808.49,-98.25 1782,-98.25 1755.51,-98.25 1734,-94.91 1734,-90.8 1734,-90.8 1734,-23.7 1734,-23.7 1734,-19.59 1755.51,-16.25 1782,-16.25 1808.49,-16.25 1830,-19.59 1830,-23.7 1830,-23.7 1830,-90.8 1830,-90.8"/>
<path fill="none" stroke="black" d="M1830,-90.8C1830,-86.68 1808.49,-83.34 1782,-83.34 1755.51,-83.34 1734,-86.68 1734,-90.8"/>
<text text-anchor="middle" x="1782" y="-73.65" font-family="Arial" font-size="12.00" fill="white">File System</text>
<text text-anchor="middle" x="1782" y="-60.65" font-family="Arial" font-size="12.00" fill="white">• ~/.ask_* files</text>
<text text-anchor="middle" x="1782" y="-47.65" font-family="Arial" font-size="12.00" fill="white">• Configuration</text>
<text text-anchor="middle" x="1782" y="-34.65" font-family="Arial" font-size="12.00" fill="white">• History</text>
</g>
<!-- io_utils&#45;&gt;filesystem -->
<g id="edge12" class="edge">
<title>io_utils&#45;&gt;filesystem</title>
<path fill="none" stroke="black" stroke-dasharray="5,2" d="M1166.1,-195.79C1177.34,-189.5 1189.75,-183.65 1202,-180 1260.46,-162.56 1278.74,-180.99 1339,-171.5 1479.49,-149.39 1640.31,-102.76 1724.19,-76.76"/>
<polygon fill="black" stroke="black" points="1725.28,-80.09 1733.79,-73.77 1723.2,-73.4 1725.28,-80.09"/>
<text text-anchor="middle" x="1415" y="-163.5" font-family="Arial" font-size="10.00">persist</text>
</g>
<!-- config&#45;&gt;filesystem -->
<g id="edge24" class="edge">
<title>config&#45;&gt;filesystem</title>
<path fill="none" stroke="black" d="M1001.73,-202.29C1015.28,-194.11 1031.38,-185.54 1047,-180 1288.57,-94.28 1596.6,-68.32 1723.42,-60.96"/>
<polygon fill="black" stroke="black" points="1723.89,-64.44 1733.68,-60.38 1723.5,-57.45 1723.89,-64.44"/>
<text text-anchor="middle" x="1131" y="-163.5" font-family="Arial" font-size="10.00">reads config</text>
</g>
<!-- markdown_renderer -->
<g id="node17" class="node">
<title>markdown_renderer</title>
<polygon fill="khaki" stroke="black" points="1390,-244 1214,-244 1214,-208 1390,-208 1390,-244"/>
<text text-anchor="middle" x="1302" y="-229.4" font-family="Arial" font-size="12.00">ai/utils/markdown_renderer.py</text>
<text text-anchor="middle" x="1302" y="-216.4" font-family="Arial" font-size="12.00">Markdown rendering</text>
</g>
<!-- logging&#45;&gt;filesystem -->
<g id="edge25" class="edge">
<title>logging&#45;&gt;filesystem</title>
<path fill="none" stroke="black" d="M521.67,-207.96C533.71,-198.02 550.2,-186.25 567,-180 783.38,-99.46 1511.17,-67.83 1723.43,-60.19"/>
<polygon fill="black" stroke="black" points="1723.87,-63.68 1733.74,-59.82 1723.62,-56.68 1723.87,-63.68"/>
<text text-anchor="middle" x="644" y="-163.5" font-family="Arial" font-size="10.00">writes logs</text>
</g>
<!-- leg_entry -->
<g id="node25" class="node">
<title>leg_entry</title>
<ellipse fill="palegreen" stroke="black" cx="2193" cy="-226" rx="46.34" ry="18"/>
<text text-anchor="middle" x="2193" y="-222.9" font-family="Arial" font-size="12.00">Entry Point</text>
</g>
<!-- leg_core -->
<g id="node26" class="node">
<title>leg_core</title>
<polygon fill="lightblue" stroke="black" points="2862,-748.04 2754,-748.04 2754,-712.04 2862,-712.04 2862,-748.04"/>
<text text-anchor="middle" x="2808" y="-726.94" font-family="Arial" font-size="12.00">Core Component</text>
</g>
<!-- leg_mode -->
<g id="node27" class="node">
<title>leg_mode</title>
<polygon fill="gold" stroke="black" points="2735.5,-748.04 2630.5,-748.04 2630.5,-712.04 2735.5,-712.04 2735.5,-748.04"/>
<text text-anchor="middle" x="2683" y="-726.94" font-family="Arial" font-size="12.00">Interaction Mode</text>
</g>
<!-- leg_api -->
<g id="node28" class="node">
<title>leg_api</title>
<polygon fill="pink" stroke="black" points="2612.5,-748.04 2543.5,-748.04 2543.5,-712.04 2612.5,-712.04 2612.5,-748.04"/>
<text text-anchor="middle" x="2578" y="-726.94" font-family="Arial" font-size="12.00">API Layer</text>
</g>
<!-- leg_plugin -->
<g id="node29" class="node">
<title>leg_plugin</title>
<polygon fill="plum" stroke="black" points="2525,-748.04 2431,-748.04 2431,-712.04 2525,-712.04 2525,-748.04"/>
<text text-anchor="middle" x="2478" y="-726.94" font-family="Arial" font-size="12.00">Plugin System</text>
</g>
<!-- leg_util -->
<g id="node30" class="node">
<title>leg_util</title>
<polygon fill="khaki" stroke="black" points="2413,-748.04 2359,-748.04 2359,-712.04 2413,-712.04 2413,-748.04"/>
<text text-anchor="middle" x="2386" y="-726.94" font-family="Arial" font-size="12.00">Utility</text>
</g>
<!-- leg_external -->
<g id="node31" class="node">
<title>leg_external</title>
<path fill="gray" stroke="black" d="M2341,-744.77C2341,-746.57 2317.69,-748.04 2289,-748.04 2260.31,-748.04 2237,-746.57 2237,-744.77 2237,-744.77 2237,-715.31 2237,-715.31 2237,-713.51 2260.31,-712.04 2289,-712.04 2317.69,-712.04 2341,-713.51 2341,-715.31 2341,-715.31 2341,-744.77 2341,-744.77"/>
<path fill="none" stroke="black" d="M2341,-744.77C2341,-742.96 2317.69,-741.5 2289,-741.5 2260.31,-741.5 2237,-742.96 2237,-744.77"/>
<text text-anchor="middle" x="2289" y="-726.94" font-family="Arial" font-size="12.00" fill="white">External Service</text>
</g>
<!-- leg_flow -->
<!-- leg_data -->
<!-- leg_flow&#45;&gt;leg_data -->
<g id="edge26" class="edge">
<title>leg_flow&#45;&gt;leg_data</title>
<path fill="none" stroke="black" d="M2183.34,-711.89C2183.86,-686.22 2184.84,-637.57 2185.45,-606.93"/>
<polygon fill="black" stroke="black" points="2188.95,-606.98 2185.65,-596.91 2181.95,-606.84 2188.95,-606.98"/>
<text text-anchor="middle" x="2208.5" y="-680" font-family="Arial" font-size="10.00">control flow</text>
</g>
<!-- leg_plugin_flow -->
<!-- leg_data&#45;&gt;leg_plugin_flow -->
<g id="edge27" class="edge">
<title>leg_data&#45;&gt;leg_plugin_flow</title>
<path fill="none" stroke="black" stroke-dasharray="5,2" d="M2186.42,-560.47C2187.11,-532.47 2188.49,-476.46 2189.32,-442.85"/>
<polygon fill="black" stroke="black" points="2192.83,-442.87 2189.57,-432.79 2185.83,-442.7 2192.83,-442.87"/>
<text text-anchor="middle" x="2207" y="-516" font-family="Arial" font-size="10.00">data flow</text>
</g>
<!-- leg_plugin_flow&#45;&gt;leg_entry -->
<g id="edge28" class="edge">
<title>leg_plugin_flow&#45;&gt;leg_entry</title>
<path fill="none" stroke="black" stroke-dasharray="1,5" d="M2190.28,-396.29C2190.8,-363.81 2191.93,-293.26 2192.56,-254.27"/>
<polygon fill="black" stroke="black" points="2196.06,-254.22 2192.72,-244.17 2189.06,-254.11 2196.06,-254.22"/>
<text text-anchor="middle" x="2213.5" y="-352" font-family="Arial" font-size="10.00">plugin flow</text>
</g>
</g>
</svg>
